<svg xmlns="http://www.w3.org/2000/svg" version="1.1" xmlns:xlink="http://www.w3.org/1999/xlink" xmlns:svgjs="http://svgjs.dev/svgjs" width="1000" height="249" viewBox="0 0 1000 249"><g transform="matrix(1,0,0,1,-0.6060551648647561,0.32760949912723447)"><svg viewBox="0 0 396 99" data-background-color="#6936f5" preserveAspectRatio="xMidYMid meet" height="249" width="1000" xmlns="http://www.w3.org/2000/svg" xmlns:xlink="http://www.w3.org/1999/xlink"><g id="tight-bounds" transform="matrix(1,0,0,1,0.23999812674662735,-0.13025433956309485)"><svg viewBox="0 0 395.52 99.26050871873413" height="99.26050871873413" width="395.52"><g><svg viewBox="0 0 544.8611320973903 136.73946488939208" height="99.26050871873413" width="395.52"><g transform="matrix(1,0,0,1,149.34113209739033,18.898146015827713)"><svg viewBox="0 0 395.52 98.94317285773666" height="98.94317285773666" width="395.52"><g id="textblocktransform"><svg viewBox="0 0 395.52 98.94317285773666" height="98.94317285773666" width="395.52" id="textblock"><g><svg viewBox="0 0 395.52 53.408163146394756" height="53.408163146394756" width="395.52"><g transform="matrix(1,0,0,1,0,0)"><svg width="395.52" viewBox="0.15000000596046448 -38.849998474121094 347.6199951171875 46.349998474121094" height="53.408163146394756" data-palette-color="#ffffff"><path d="M13.5-36.3L13.5-6.8Q13.5-2.35 11.78 0.83 10.05 4 7.05 5.68 4.05 7.35 0.15 7.5L0.15 7.5 0.15 7.5 0.15 2.3Q3.65 2.1 5.9-0.1 8.15-2.3 8.15-6.95L8.15-6.95 8.15-36.3 13.5-36.3ZM32.4 0.5L32.4 0.5Q28.75 0.5 26.15-0.93 23.55-2.35 22.15-4.88 20.75-7.4 20.75-10.65L20.75-10.65Q20.75-13.75 22.32-16.28 23.9-18.8 26.57-20.3 29.25-21.8 32.5-21.8L32.5-21.8Q36.7-21.8 39.47-19.35 42.25-16.9 43.2-12.5L43.2-12.5 26.15-6.6 24.95-9.6 38.6-14.5 37.55-13.85Q36.95-15.4 35.65-16.57 34.35-17.75 32.1-17.75L32.1-17.75Q30.3-17.75 28.87-16.88 27.45-16 26.62-14.48 25.8-12.95 25.8-10.9L25.8-10.9Q25.8-8.8 26.67-7.23 27.55-5.65 29.07-4.75 30.6-3.85 32.5-3.85L32.5-3.85Q33.85-3.85 35.07-4.35 36.3-4.85 37.4-5.6L37.4-5.6 39.75-1.8Q38.1-0.75 36.17-0.13 34.25 0.5 32.4 0.5ZM57.65 0.5L57.65 0.5Q54.7 0.5 52.3-0.73 49.9-1.95 48.5-4.4 47.1-6.85 47.1-10.45L47.1-10.45Q47.1-14 48.57-16.55 50.05-19.1 52.47-20.48 54.9-21.85 57.75-21.85L57.75-21.85Q60.75-21.85 62.67-20.58 64.6-19.3 65.7-17.6L65.7-17.6 65.35-16.8 65.85-20.95 70.6-20.95 70.6 0 65.45 0 65.45-5.25 66-4Q65.8-3.6 65.15-2.88 64.5-2.15 63.42-1.35 62.35-0.55 60.92-0.03 59.5 0.5 57.65 0.5ZM59.05-3.7L59.05-3.7Q60.7-3.7 62-4.3 63.3-4.9 64.2-6 65.1-7.1 65.45-8.6L65.45-8.6 65.45-12.95Q65.05-14.35 64.1-15.38 63.15-16.4 61.82-17 60.5-17.6 58.9-17.6L58.9-17.6Q57.1-17.6 55.6-16.73 54.1-15.85 53.2-14.3 52.3-12.75 52.3-10.7L52.3-10.7Q52.3-8.75 53.22-7.15 54.15-5.55 55.7-4.63 57.25-3.7 59.05-3.7ZM78.49-20.95L83.09-20.95 83.54-16.15 83.34-16.8Q84.39-19.05 86.59-20.43 88.79-21.8 91.79-21.8L91.79-21.8Q94.74-21.8 96.67-20.05 98.59-18.3 98.64-15.5L98.64-15.5 98.64 0 93.49 0 93.49-13.7Q93.44-15.3 92.54-16.32 91.64-17.35 89.74-17.4L89.74-17.4Q88.04-17.4 86.64-16.38 85.24-15.35 84.44-13.6 83.64-11.85 83.64-9.55L83.64-9.55 83.64 0 78.49 0 78.49-20.95ZM147.34-36.3L152.69-36.3 152.69 0 147.34 0 147.34-15.65 128.94-15.65 128.94 0 123.59 0 123.59-36.3 128.94-36.3 128.94-20.75 147.34-20.75 147.34-36.3ZM159.94-10.7L159.94-10.7Q159.94-13.85 161.44-16.38 162.94-18.9 165.59-20.35 168.24-21.8 171.64-21.8L171.64-21.8Q175.09-21.8 177.69-20.35 180.29-18.9 181.71-16.38 183.14-13.85 183.14-10.7L183.14-10.7Q183.14-7.55 181.71-5 180.29-2.45 177.69-0.98 175.09 0.5 171.59 0.5L171.59 0.5Q168.24 0.5 165.61-0.85 162.99-2.2 161.46-4.73 159.94-7.25 159.94-10.7ZM165.14-10.65L165.14-10.65Q165.14-8.7 165.99-7.13 166.84-5.55 168.29-4.63 169.74-3.7 171.54-3.7L171.54-3.7Q173.39-3.7 174.84-4.63 176.29-5.55 177.11-7.13 177.94-8.7 177.94-10.65L177.94-10.65Q177.94-12.6 177.11-14.15 176.29-15.7 174.84-16.65 173.39-17.6 171.54-17.6L171.54-17.6Q169.69-17.6 168.24-16.65 166.79-15.7 165.96-14.13 165.14-12.55 165.14-10.65ZM196.13 0L190.98 0 190.98-16.4 187.43-16.4 187.43-20.95 190.98-20.95 190.98-29.45Q190.98-33.95 193.13-36.4 195.28-38.85 199.38-38.85L199.38-38.85Q200.48-38.85 201.83-38.53 203.18-38.2 204.23-37.5L204.23-37.5 202.08-33.75Q201.63-34.25 201.06-34.45 200.48-34.65 199.88-34.65L199.88-34.65Q198.13-34.65 197.13-33.45 196.13-32.25 196.13-29.35L196.13-29.35 196.13-20.95 202.73-20.95 202.73-16.4 196.13-16.4 196.13 0ZM215.68 0L210.53 0 210.53-16.4 206.98-16.4 206.98-20.95 210.53-20.95 210.53-29.45Q210.53-33.95 212.68-36.4 214.83-38.85 218.93-38.85L218.93-38.85Q220.03-38.85 221.38-38.53 222.73-38.2 223.78-37.5L223.78-37.5 221.63-33.75Q221.18-34.25 220.61-34.45 220.03-34.65 219.43-34.65L219.43-34.65Q217.68-34.65 216.68-33.45 215.68-32.25 215.68-29.35L215.68-29.35 215.68-20.95 222.28-20.95 222.28-16.4 215.68-16.4 215.68 0ZM228.33-20.95L232.93-20.95 233.38-16.45 233.18-16.8Q234.38-19.15 236.48-20.48 238.58-21.8 241.33-21.8L241.33-21.8Q243.03-21.8 244.4-21.25 245.78-20.7 246.68-19.7 247.58-18.7 247.83-17.2L247.83-17.2 247.58-17.05Q248.83-19.25 250.9-20.53 252.98-21.8 255.33-21.8L255.33-21.8Q258.38-21.8 260.2-20.05 262.03-18.3 262.08-15.55L262.08-15.55 262.08 0 256.98 0 256.98-13.6Q256.93-15.15 256.25-16.2 255.58-17.25 253.88-17.35L253.88-17.35Q252.08-17.35 250.7-16.25 249.33-15.15 248.58-13.4 247.83-11.65 247.78-9.65L247.78-9.65 247.78 0 242.63 0 242.63-13.6Q242.58-15.15 241.88-16.2 241.18-17.25 239.43-17.35L239.43-17.35Q237.63-17.35 236.28-16.25 234.93-15.15 234.2-13.38 233.48-11.6 233.48-9.65L233.48-9.65 233.48 0 228.33 0 228.33-20.95ZM278.73 0.5L278.73 0.5Q275.78 0.5 273.38-0.73 270.98-1.95 269.58-4.4 268.18-6.85 268.18-10.45L268.18-10.45Q268.18-14 269.65-16.55 271.13-19.1 273.55-20.48 275.98-21.85 278.83-21.85L278.83-21.85Q281.83-21.85 283.75-20.58 285.68-19.3 286.78-17.6L286.78-17.6 286.43-16.8 286.93-20.95 291.68-20.95 291.68 0 286.53 0 286.53-5.25 287.08-4Q286.88-3.6 286.23-2.88 285.58-2.15 284.5-1.35 283.43-0.55 282-0.03 280.58 0.5 278.73 0.5ZM280.13-3.7L280.13-3.7Q281.78-3.7 283.08-4.3 284.38-4.9 285.28-6 286.18-7.1 286.53-8.6L286.53-8.6 286.53-12.95Q286.13-14.35 285.18-15.38 284.23-16.4 282.9-17 281.58-17.6 279.98-17.6L279.98-17.6Q278.18-17.6 276.68-16.73 275.18-15.85 274.28-14.3 273.38-12.75 273.38-10.7L273.38-10.7Q273.38-8.75 274.3-7.15 275.23-5.55 276.78-4.63 278.33-3.7 280.13-3.7ZM299.57-20.95L304.17-20.95 304.62-16.15 304.42-16.8Q305.47-19.05 307.67-20.43 309.87-21.8 312.87-21.8L312.87-21.8Q315.82-21.8 317.75-20.05 319.67-18.3 319.72-15.5L319.72-15.5 319.72 0 314.57 0 314.57-13.7Q314.52-15.3 313.62-16.32 312.72-17.35 310.82-17.4L310.82-17.4Q309.12-17.4 307.72-16.38 306.32-15.35 305.52-13.6 304.72-11.85 304.72-9.55L304.72-9.55 304.72 0 299.57 0 299.57-20.95ZM327.62-20.95L332.22-20.95 332.67-16.15 332.47-16.8Q333.52-19.05 335.72-20.43 337.92-21.8 340.92-21.8L340.92-21.8Q343.87-21.8 345.8-20.05 347.72-18.3 347.77-15.5L347.77-15.5 347.77 0 342.62 0 342.62-13.7Q342.57-15.3 341.67-16.32 340.77-17.35 338.87-17.4L338.87-17.4Q337.17-17.4 335.77-16.38 334.37-15.35 333.57-13.6 332.77-11.85 332.77-9.55L332.77-9.55 332.77 0 327.62 0 327.62-20.95Z" opacity="1" transform="matrix(1,0,0,1,0,0)" fill="#ffffff" class="wordmark-text-0" data-fill-palette-color="primary" id="text-0"></path></svg></g></svg></g><g transform="matrix(1,0,0,1,75.54432,66.01654866934305)"><svg viewBox="0 0 244.43135999999998 32.92662418839361" height="32.92662418839361" width="244.43135999999998"><g transform="matrix(1,0,0,1,0,0)"><svg width="244.43135999999998" viewBox="1.25 -38.79999923706055 356.6700134277344 48.04999923706055" height="32.92662418839361" data-palette-color="#ffffff"><path d="M20.95-30.75L26.35-30.75Q27.15-28.05 28.05-25.13 28.95-22.2 29.93-19.28 30.9-16.35 31.88-13.53 32.85-10.7 33.75-8.2L33.75-8.2Q34.5-10.9 35.2-14.08 35.9-17.25 36.6-20.68 37.3-24.1 37.98-27.65 38.65-31.2 39.25-34.65L39.25-34.65 45.75-34.65Q44-25.25 41.85-16.57 39.7-7.9 37.05 0L37.05 0 31.05 0Q27.15-10.1 23.5-22.05L23.5-22.05Q21.65-16 19.75-10.55 17.85-5.1 15.95 0L15.95 0 9.95 0Q7.25-7.9 5.13-16.57 3-25.25 1.25-34.65L1.25-34.65 8-34.65Q8.6-31.25 9.28-27.7 9.95-24.15 10.68-20.73 11.4-17.3 12.15-14.1 12.9-10.9 13.65-8.2L13.65-8.2Q14.6-10.75 15.58-13.58 16.55-16.4 17.5-19.33 18.45-22.25 19.33-25.15 20.2-28.05 20.95-30.75L20.95-30.75ZM48.35-12.95L48.35-12.95Q48.35-16.4 49.37-19 50.4-21.6 52.1-23.33 53.8-25.05 56-25.93 58.2-26.8 60.5-26.8L60.5-26.8Q65.9-26.8 68.92-23.45 71.95-20.1 71.95-13.45L71.95-13.45Q71.95-12.95 71.92-12.33 71.9-11.7 71.85-11.2L71.85-11.2 54.6-11.2Q54.85-8.05 56.82-6.33 58.8-4.6 62.55-4.6L62.55-4.6Q64.75-4.6 66.57-5 68.4-5.4 69.45-5.85L69.45-5.85 70.25-0.9Q69.75-0.65 68.87-0.38 68-0.1 66.87 0.13 65.75 0.35 64.45 0.5 63.15 0.65 61.8 0.65L61.8 0.65Q58.35 0.65 55.8-0.38 53.25-1.4 51.6-3.23 49.95-5.05 49.15-7.53 48.35-10 48.35-12.95ZM54.65-15.65L65.9-15.65Q65.9-16.9 65.55-18.03 65.2-19.15 64.52-19.98 63.85-20.8 62.87-21.28 61.9-21.75 60.55-21.75L60.55-21.75Q59.15-21.75 58.1-21.23 57.05-20.7 56.32-19.85 55.6-19 55.2-17.9 54.8-16.8 54.65-15.65L54.65-15.65ZM95.7-13.15L95.7-13.15Q95.7-17 94.17-19.25 92.65-21.5 89.34-21.5L89.34-21.5Q87.84-21.5 86.52-21.05 85.2-20.6 84.4-20.05L84.4-20.05 84.4-5Q85.05-4.85 86.07-4.73 87.09-4.6 88.55-4.6L88.55-4.6Q91.9-4.6 93.8-6.88 95.7-9.15 95.7-13.15ZM101.9-13.05L101.9-13.05Q101.9-9.9 100.97-7.38 100.05-4.85 98.32-3.05 96.59-1.25 94.15-0.3 91.7 0.65 88.59 0.65L88.59 0.65Q85.59 0.65 82.87 0.2 80.15-0.25 78.34-0.8L78.34-0.8 78.34-37.8 84.4-38.8 84.4-25.25Q85.45-25.8 86.97-26.25 88.5-26.7 90.34-26.7L90.34-26.7Q93.09-26.7 95.27-25.73 97.45-24.75 98.9-22.95 100.34-21.15 101.12-18.63 101.9-16.1 101.9-13.05ZM126.39-29.4L126.39-5.2Q126.94-5.15 127.84-5.13 128.74-5.1 130.29-5.1L130.29-5.1Q136.64-5.1 139.77-8.33 142.89-11.55 142.89-17.35L142.89-17.35Q142.89-23.25 139.84-26.4 136.79-29.55 130.39-29.55L130.39-29.55Q127.59-29.55 126.39-29.4L126.39-29.4ZM149.49-17.35L149.49-17.35Q149.49-12.85 148.09-9.53 146.69-6.2 144.12-3.98 141.54-1.75 137.92-0.68 134.29 0.4 129.89 0.4L129.89 0.4Q127.79 0.4 125.14 0.23 122.49 0.05 120.09-0.5L120.09-0.5 120.09-34.15Q122.49-34.7 125.19-34.85 127.89-35 129.99-35L129.99-35Q134.34-35 137.94-33.98 141.54-32.95 144.12-30.78 146.69-28.6 148.09-25.28 149.49-21.95 149.49-17.35ZM154.64-12.95L154.64-12.95Q154.64-16.4 155.66-19 156.69-21.6 158.39-23.33 160.09-25.05 162.29-25.93 164.49-26.8 166.79-26.8L166.79-26.8Q172.19-26.8 175.21-23.45 178.24-20.1 178.24-13.45L178.24-13.45Q178.24-12.95 178.21-12.33 178.19-11.7 178.14-11.2L178.14-11.2 160.89-11.2Q161.14-8.05 163.11-6.33 165.09-4.6 168.84-4.6L168.84-4.6Q171.04-4.6 172.86-5 174.69-5.4 175.74-5.85L175.74-5.85 176.54-0.9Q176.04-0.65 175.16-0.38 174.29-0.1 173.16 0.13 172.04 0.35 170.74 0.5 169.44 0.65 168.09 0.65L168.09 0.65Q164.64 0.65 162.09-0.38 159.54-1.4 157.89-3.23 156.24-5.05 155.44-7.53 154.64-10 154.64-12.95ZM160.94-15.65L172.19-15.65Q172.19-16.9 171.84-18.03 171.49-19.15 170.81-19.98 170.14-20.8 169.16-21.28 168.19-21.75 166.84-21.75L166.84-21.75Q165.44-21.75 164.39-21.23 163.34-20.7 162.61-19.85 161.89-19 161.49-17.9 161.09-16.8 160.94-15.65L160.94-15.65ZM196.54 0L191.34 0Q188.84-5.15 186.21-11.83 183.59-18.5 181.44-26.15L181.44-26.15 187.89-26.15Q188.44-23.95 189.16-21.43 189.89-18.9 190.71-16.38 191.54-13.85 192.41-11.48 193.29-9.1 194.04-7.2L194.04-7.2Q194.79-9.1 195.64-11.48 196.49-13.85 197.31-16.38 198.14-18.9 198.89-21.43 199.64-23.95 200.19-26.15L200.19-26.15 206.44-26.15Q204.29-18.5 201.66-11.83 199.04-5.15 196.54 0L196.54 0ZM208.88-12.95L208.88-12.95Q208.88-16.4 209.91-19 210.93-21.6 212.63-23.33 214.33-25.05 216.53-25.93 218.73-26.8 221.03-26.8L221.03-26.8Q226.43-26.8 229.46-23.45 232.48-20.1 232.48-13.45L232.48-13.45Q232.48-12.95 232.46-12.33 232.43-11.7 232.38-11.2L232.38-11.2 215.13-11.2Q215.38-8.05 217.36-6.33 219.33-4.6 223.08-4.6L223.08-4.6Q225.28-4.6 227.11-5 228.93-5.4 229.98-5.85L229.98-5.85 230.78-0.9Q230.28-0.65 229.41-0.38 228.53-0.1 227.41 0.13 226.28 0.35 224.98 0.5 223.68 0.65 222.33 0.65L222.33 0.65Q218.88 0.65 216.33-0.38 213.78-1.4 212.13-3.23 210.48-5.05 209.68-7.53 208.88-10 208.88-12.95ZM215.18-15.65L226.43-15.65Q226.43-16.9 226.08-18.03 225.73-19.15 225.06-19.98 224.38-20.8 223.41-21.28 222.43-21.75 221.08-21.75L221.08-21.75Q219.68-21.75 218.63-21.23 217.58-20.7 216.86-19.85 216.13-19 215.73-17.9 215.33-16.8 215.18-15.65L215.18-15.65ZM248.83-4.5L247.98 0.5Q245.28 0.45 243.51-0.1 241.73-0.65 240.68-1.68 239.63-2.7 239.21-4.23 238.78-5.75 238.78-7.7L238.78-7.7 238.78-37.8 244.83-38.8 244.83-8.85Q244.83-7.75 245.01-7 245.18-6.25 245.63-5.73 246.08-5.2 246.86-4.93 247.63-4.65 248.83-4.5L248.83-4.5ZM277.38-13.1L277.38-13.1Q277.38-10 276.48-7.45 275.58-4.9 273.93-3.1 272.28-1.3 269.95-0.3 267.63 0.7 264.83 0.7L264.83 0.7Q262.03 0.7 259.73-0.3 257.43-1.3 255.78-3.1 254.13-4.9 253.2-7.45 252.28-10 252.28-13.1L252.28-13.1Q252.28-16.2 253.2-18.73 254.13-21.25 255.8-23.05 257.48-24.85 259.78-25.83 262.08-26.8 264.83-26.8L264.83-26.8Q267.58-26.8 269.9-25.83 272.23-24.85 273.88-23.05 275.53-21.25 276.45-18.73 277.38-16.2 277.38-13.1ZM271.18-13.1L271.18-13.1Q271.18-17 269.5-19.28 267.83-21.55 264.83-21.55L264.83-21.55Q261.83-21.55 260.15-19.28 258.48-17 258.48-13.1L258.48-13.1Q258.48-9.15 260.15-6.85 261.83-4.55 264.83-4.55L264.83-4.55Q267.83-4.55 269.5-6.85 271.18-9.15 271.18-13.1ZM300.98-12.95L300.98-12.95Q300.98-17 299.15-19.25 297.33-21.5 293.28-21.5L293.28-21.5Q292.43-21.5 291.5-21.43 290.58-21.35 289.68-21.1L289.68-21.1 289.68-6.15Q290.48-5.6 291.8-5.13 293.13-4.65 294.63-4.65L294.63-4.65Q297.93-4.65 299.45-6.9 300.98-9.15 300.98-12.95ZM307.18-13.05L307.18-13.05Q307.18-10.05 306.4-7.55 305.63-5.05 304.18-3.25 302.73-1.45 300.55-0.45 298.38 0.55 295.63 0.55L295.63 0.55Q293.78 0.55 292.23 0.1 290.68-0.35 289.68-0.9L289.68-0.9 289.68 9.25 283.63 9.25 283.63-25.3Q285.48-25.8 288.18-26.25 290.88-26.7 293.88-26.7L293.88-26.7Q296.98-26.7 299.43-25.75 301.88-24.8 303.6-23.03 305.33-21.25 306.25-18.73 307.18-16.2 307.18-13.05ZM311.97-12.95L311.97-12.95Q311.97-16.4 313-19 314.02-21.6 315.72-23.33 317.42-25.05 319.62-25.93 321.82-26.8 324.12-26.8L324.12-26.8Q329.52-26.8 332.55-23.45 335.57-20.1 335.57-13.45L335.57-13.45Q335.57-12.95 335.55-12.33 335.52-11.7 335.47-11.2L335.47-11.2 318.22-11.2Q318.47-8.05 320.45-6.33 322.42-4.6 326.17-4.6L326.17-4.6Q328.37-4.6 330.2-5 332.02-5.4 333.07-5.85L333.07-5.85 333.87-0.9Q333.37-0.65 332.5-0.38 331.62-0.1 330.5 0.13 329.37 0.35 328.07 0.5 326.77 0.65 325.42 0.65L325.42 0.65Q321.97 0.65 319.42-0.38 316.87-1.4 315.22-3.23 313.57-5.05 312.77-7.53 311.97-10 311.97-12.95ZM318.27-15.65L329.52-15.65Q329.52-16.9 329.17-18.03 328.82-19.15 328.15-19.98 327.47-20.8 326.5-21.28 325.52-21.75 324.17-21.75L324.17-21.75Q322.77-21.75 321.72-21.23 320.67-20.7 319.95-19.85 319.22-19 318.82-17.9 318.42-16.8 318.27-15.65L318.27-15.65ZM357.92-25.8L356.87-20.7Q356.12-20.95 354.8-21.23 353.47-21.5 351.72-21.5L351.72-21.5Q350.72-21.5 349.6-21.3 348.47-21.1 348.02-20.95L348.02-20.95 348.02 0 341.97 0 341.97-24.9Q343.72-25.55 346.35-26.13 348.97-26.7 352.17-26.7L352.17-26.7Q352.77-26.7 353.57-26.63 354.37-26.55 355.17-26.43 355.97-26.3 356.72-26.13 357.47-25.95 357.92-25.8L357.92-25.8Z" opacity="1" transform="matrix(1,0,0,1,0,0)" fill="#ffffff" class="slogan-text-1" data-fill-palette-color="secondary" id="text-1"></path></svg></g></svg></g></svg></g></svg></g><g><svg viewBox="0 0 136.73274657444205 136.73946488939208" height="136.73946488939208" width="136.73274657444205"><g><svg xmlns="http://www.w3.org/2000/svg" xmlns:xlink="http://www.w3.org/1999/xlink" version="1.1" x="0" y="0" viewBox="0.3583327531814575 0.3587183356285095 89.28327178955078 89.28765869140625" enable-background="new 0 0 90 90" xml:space="preserve" height="136.73946488939208" width="136.73274657444205" class="icon-icon-0" data-fill-palette-color="accent" id="icon-0"><polygon points="57.928,58.169 57.875,76.027 45.397,63.548 45.397,45.639 " fill="#ffffff" data-fill-palette-color="accent"></polygon><polygon points="76.027,57.875 58.475,57.927 45.826,45.279 63.432,45.279 " fill="#ffffff" data-fill-palette-color="accent"></polygon><polygon points="76.027,32.125 63.432,44.721 45.707,44.721 58.355,32.073 " fill="#ffffff" data-fill-palette-color="accent"></polygon><polygon points="44.838,45.59 44.838,63.314 32.125,76.027 32.074,58.355 " fill="#ffffff" data-fill-palette-color="accent"></polygon><polygon points="57.928,31.712 45.397,44.243 45.397,26.452 57.875,13.974 " fill="#ffffff" data-fill-palette-color="accent"></polygon><polygon points="44.838,26.687 44.838,44.291 32.074,31.526 32.125,13.974 " fill="#ffffff" data-fill-palette-color="accent"></polygon><polygon points="44.479,44.721 26.569,44.721 13.974,32.125 31.832,32.073 " fill="#ffffff" data-fill-palette-color="accent"></polygon><polygon points="44.36,45.279 31.712,57.927 13.974,57.875 26.569,45.279 " fill="#ffffff" data-fill-palette-color="accent"></polygon><rect x="58.48" y="58.48" width="18.049" height="18.049" fill="#ffffff" data-fill-palette-color="accent"></rect><polygon points="76.527,13.474 76.527,31.516 58.914,31.516 58.912,31.518 58.484,31.516 58.484,13.474 " fill="#ffffff" data-fill-palette-color="accent"></polygon><polygon points="31.518,30.971 31.516,31.516 13.474,31.516 13.474,13.474 31.516,13.474 31.516,30.968 " fill="#ffffff" data-fill-palette-color="accent"></polygon><rect x="13.471" y="58.48" width="18.05" height="18.049" fill="#ffffff" data-fill-palette-color="accent"></rect><rect x="67.864" y="35.981" transform="matrix(0.7071 -0.7071 0.7071 0.7071 -9.3022 67.5465)" width="18.042" height="18.042" fill="#ffffff" data-fill-palette-color="accent"></rect><rect x="35.979" y="4.094" transform="matrix(0.7071 -0.7071 0.7071 0.7071 3.9068 35.6621)" width="18.042" height="18.042" fill="#ffffff" data-fill-palette-color="accent"></rect><rect x="4.095" y="35.98" transform="matrix(0.7071 -0.7071 0.7071 0.7071 -27.9787 22.4536)" width="18.041" height="18.041" fill="#ffffff" data-fill-palette-color="accent"></rect><rect x="35.98" y="67.865" transform="matrix(0.7071 -0.7071 0.7071 0.7071 -41.1877 54.3437)" width="18.04" height="18.041" fill="#ffffff" data-fill-palette-color="accent"></rect></svg></g></svg></g></svg></g><defs></defs></svg><rect width="395.52" height="99.26050871873413" fill="none" stroke="none" visibility="hidden"></rect></g></svg></g></svg>